<svg width="11" height="12" viewBox="0 0 11 12" fill="none" xmlns="http://www.w3.org/2000/svg">
<g clip-path="url(#clip0_166_44)">
<path d="M8.6582 5.94629L3.87793 10.7373C3.69889 10.9163 3.48226 11.0059 3.22803 11.0059C2.9738 11.0059 2.75716 10.9163 2.57812 10.7373C2.39909 10.5583 2.30957 10.3416 2.30957 10.0874C2.30957 9.83317 2.39909 9.61654 2.57812 9.4375L6.06934 5.94629L2.57812 2.46582C2.39909 2.28678 2.30957 2.07015 2.30957 1.81592C2.30957 1.56169 2.39909 1.34505 2.57812 1.16602C2.75716 0.98698 2.97379 0.897461 3.22803 0.897461C3.48226 0.897461 3.69889 0.98698 3.87793 1.16602L8.6582 5.94629Z" fill="white"/>
</g>
<defs>
<clipPath id="clip0_166_44">
<rect width="11.1074" height="11" fill="white" transform="translate(0 11.5537) rotate(-90)"/>
</clipPath>
</defs>
</svg>
